<?xml version="1.0" encoding="utf-8"?>
<!-- Font: Acumin Variable Concept -->
<svg version="1.1" id="scant-logo" xmlns="http://www.w3.org/2000/svg" xmlns:xlink="http://www.w3.org/1999/xlink" x="0px" y="0px"
	 viewBox="0 0 512 512" enable-background="new 0 0 512 512" xml:space="preserve">
<circle id="circle" fill="#FF3E00" cx="256" cy="256" r="256"/>
<path id="s" d="M201.6,368v16.641c0,50.56,14.08,79.999,54.4,79.999c43.52,0,54.4-33.279,54.4-95.999
	c0-61.44-10.88-88.32-53.76-123.521c-40.96-33.28-56.96-57.6-56.96-122.24c0-52.48,16.64-85.12,58.24-85.12
	c41.6,0,56.96,26.88,56.96,83.2v16.64H304v-16.64c0-50.56-12.801-73.6-46.72-73.6c-33.28,0-46.72,27.52-46.72,74.88
	c0,55.68,8.96,78.08,49.92,111.36c49.28,40.32,60.8,69.12,60.8,135.04c0,52.479-5.76,105.6-65.92,105.6
	c-60.8,0-64.64-54.4-64.64-94.72V368H201.6z"/>
</svg>
