<?xml version="1.0" encoding="utf-8"?>
<!-- Font: Acumin Variable Concept -->
<svg version="1.1" id="scant" xmlns="http://www.w3.org/2000/svg" xmlns:xlink="http://www.w3.org/1999/xlink" x="0px" y="0px"
	 viewBox="0 0 420 208" enable-background="new 0 0 420 208" xml:space="preserve">
<g>
	<path d="M18.054,154.399v7.488c0,22.751,6.336,35.999,24.479,35.999c19.583,0,24.479-14.976,24.479-43.199
		c0-27.647-4.896-39.743-24.191-55.583C24.39,84.128,17.189,73.185,17.189,44.097c0-23.615,7.488-38.303,26.208-38.303
		S69.029,17.89,69.029,43.233v7.488h-4.896v-7.488c0-22.751-5.76-33.119-21.024-33.119c-14.976,0-21.023,12.384-21.023,33.695
		c0,25.055,4.032,35.135,22.463,50.111c22.176,18.144,27.36,31.104,27.36,60.767c0,23.616-2.592,47.519-29.664,47.519
		c-27.359,0-29.087-24.479-29.087-42.623v-5.184H18.054z"/>
	<path d="M155.422,153.247v5.184c0,19.295-2.88,43.775-29.664,43.775c-24.191,0-30.239-18.144-30.239-46.943V48.705
		c0-31.679,12.096-42.911,30.527-42.911c26.496,0,28.511,24.768,28.511,43.199v5.472h-4.896v-5.76c0-21.6-4.32-38.591-23.903-38.591
		c-12.672,0-25.343,6.624-25.343,37.727v107.422c0,33.12,9.216,42.623,25.631,42.623c19.583,0,24.479-16.127,24.479-39.455v-5.184
		H155.422z"/>
	<path d="M189.692,121.856l-12.672,78.046h-4.896L203.804,8.098h6.336l32.543,191.804h-4.896l-12.96-78.046H189.692z
		 M223.963,117.536c-11.808-69.983-15.551-92.446-16.991-104.83h-0.288c-1.44,14.688-8.064,53.855-16.127,104.83H223.963z"/>
	<path d="M263.134,199.902V8.098h6.911c10.944,36.863,50.399,173.661,52.991,184.316h0.288c-0.864-30.239-0.576-53.567-0.576-84.67
		V8.098h4.896v191.804h-6.912c-8.64-29.375-50.976-175.964-53.279-186.044h-0.288c0.576,23.04,0.864,54.431,0.864,89.566v96.478
		H263.134z"/>
	<path d="M373.435,12.418h-28.512v-4.32h61.919v4.32h-28.512v187.484h-4.896V12.418z"/>
</g>
</svg>
